<svg width="111" height="125" viewBox="0 0 111 125" fill="none" xmlns="http://www.w3.org/2000/svg">
<path fill-rule="evenodd" clip-rule="evenodd" d="M61.095 20.5048L89.6937 36.1094L63.406 0.854492C59.0729 6.63399 58.2063 14.1473 61.095 20.5048Z" fill="white"/>
<path fill-rule="evenodd" clip-rule="evenodd" d="M48.0968 78.0108C51.5633 78.0108 54.452 80.9006 54.452 84.6572C54.452 88.1249 51.5633 91.0147 47.8079 91.0147C44.3414 91.0147 41.4526 88.1249 41.4526 84.6572C41.7415 81.1895 44.6303 78.0108 48.0968 78.0108Z" fill="white"/>
<path fill-rule="evenodd" clip-rule="evenodd" d="M28.4525 6.1617L108.182 49.5079C110.204 50.3749 110.782 52.6867 109.915 54.7095C109.627 55.5764 109.049 56.1544 108.182 56.4433C102.116 60.2 95.4717 62.8008 88.5387 63.9567L71.7839 98.0557C71.7839 98.0557 66.5841 109.904 52.1404 105.28C58.2067 99.2116 65.4286 93.7211 65.4286 84.4739C65.4286 74.6487 57.629 66.8464 47.8072 66.8464C37.9854 66.8464 30.1858 74.6487 30.1858 84.4739C30.1858 96.6108 42.3186 101.812 48.9627 110.193C51.8515 114.527 51.5626 120.307 48.0961 124.063C40.0076 115.972 24.1194 102.101 17.4753 93.1431C14.0088 88.5195 11.9866 83.029 11.6978 77.2495C12.2755 64.5346 20.9418 53.5536 33.0746 49.7969C36.8299 48.641 40.5853 48.352 44.3407 48.352C49.5405 48.641 54.7402 50.3749 59.3622 52.9756C66.5841 57.0213 69.7618 56.1544 74.6727 51.8197C77.5614 49.5079 80.7391 41.7056 75.8282 39.9718C74.0949 39.3938 72.6505 39.1048 70.9173 38.8159C61.9621 37.082 46.074 35.3482 40.2964 32.1694C31.0524 26.9679 24.6972 16.2758 28.4525 6.1617Z" fill="white"/>
<path fill-rule="evenodd" clip-rule="evenodd" d="M28.4531 6.05605C34.8084 29.174 72.94 31.1969 92.0058 40.733L28.4531 6.05605Z" fill="white"/>
<path fill-rule="evenodd" clip-rule="evenodd" d="M65.4286 86.6801C65.4286 86.1021 65.4286 85.2352 65.4286 84.6572C69.1839 65.2959 49.2515 46.8015 34.23 49.4023C37.4076 48.5354 40.8741 48.2464 44.0518 48.5354C63.9842 49.1133 69.7617 70.4975 65.4286 86.6801Z" fill="white"/>
<path fill-rule="evenodd" clip-rule="evenodd" d="M7.07578 43.7285C10.5423 43.7285 13.7199 46.6182 13.7199 50.3749V57.0213H7.07578C3.60927 57.0213 0.431641 54.1315 0.431641 50.3749C0.431641 46.9072 3.3204 43.7285 7.07578 43.7285Z" fill="white"/>
</svg>
